<svg xmlns="http://www.w3.org/2000/svg" version="1.1" xmlns:xlink="http://www.w3.org/1999/xlink" xmlns:svgjs="http://svgjs.dev/svgjs" width="2000" height="1247" viewBox="0 0 2000 1247"><g transform="matrix(1,0,0,1,-1.2121212121212466,0.504858299595071)"><svg viewBox="0 0 396 247" data-background-color="#21232b" preserveAspectRatio="xMidYMid meet" height="1247" width="2000" xmlns="http://www.w3.org/2000/svg" xmlns:xlink="http://www.w3.org/1999/xlink"><g id="tight-bounds" transform="matrix(1,0,0,1,0.2400000000000091,-0.09999999999999432)"><svg viewBox="0 0 395.52 247.2" height="247.2" width="395.52"><g><svg></svg></g><g><svg viewBox="0 0 395.52 247.2" height="247.2" width="395.52"><mask id="086ed50d-59e7-41af-a235-82cce6697a1e"><rect width="640" height="400" fill="white"></rect><g transform="matrix(1,0,0,1,80.33555331702402,37.08)"><svg viewBox="0 0 234.84889336595194 173.04" height="173.04" width="234.84889336595194"><g><svg viewBox="0 0 234.84889336595194 173.04" height="173.04" width="234.84889336595194"><g><svg viewBox="0 0 234.84889336595194 173.04" height="173.04" width="234.84889336595194"><g><svg viewBox="0 0 234.84889336595194 173.04" height="173.04" width="234.84889336595194"><g id="SvgjsG2074"><svg viewBox="0 0 234.84889336595194 173.04" height="173.04" width="234.84889336595194" id="SvgjsSvg2073"><g><svg viewBox="0 0 234.84889336595194 173.04" height="173.04" width="234.84889336595194"><g transform="matrix(1,0,0,1,0,0)"><svg width="234.84889336595194" viewBox="-3.39 -43.99 65.47 48.5" height="173.04" data-palette-color="#f4f3f0"><g class="wordmark-text-0" data-fill-palette-color="primary" id="SvgjsG2072"><path d="M2.81-3.74L2.81-3.74Q2.81-3.74 18.87-39.7L18.87-39.7Q18.99-39.99 20.07-39.99 21.14-39.99 21.29-39.7L21.29-39.7 37.84-3.74Q38.79-1.51 39.72-1.07L39.72-1.07Q40.04-0.93 40.04-0.46 40.04 0 39.72 0L39.72 0 30.88 0Q30.57 0 30.57-0.43 30.57-0.85 30.68-0.94 30.79-1.03 30.98-1.11 31.18-1.2 31.3-1.32L31.3-1.32Q32.23-2.25 32.23-3.04 32.23-3.83 32.06-4.35L32.06-4.35 28.52-12.72 10.91-12.72 7.45-4.35Q7.28-3.83 7.28-3.56L7.28-3.56 7.28-3.3Q7.28-3.27 7.28-3.25L7.28-3.25Q7.28-2.25 8.2-1.32L8.2-1.32Q8.3-1.22 8.62-1.07 8.94-0.93 8.94-0.46 8.94 0 8.62 0L8.62 0 0.93 0Q0.61 0 0.61-0.43 0.61-0.85 0.72-0.94 0.83-1.03 1.03-1.12L1.03-1.12Q1.83-1.46 2.81-3.74ZM19.51-31.93L12.65-16.6Q12.6-16.53 12.62-16.42 12.65-16.31 12.72-16.31L12.72-16.31 26.66-16.31Q26.73-16.31 26.76-16.42 26.78-16.53 26.73-16.6L26.73-16.6 19.68-31.93 19.51-31.93ZM57.2-18.29L57.2-18.29Q57.2-18.02 56.71-18.03 56.22-18.04 56.13-18.04L56.13-18.04Q55.83-18.04 55.69-18.46L55.69-18.46Q55.15-19.73 53.44-20.54 51.73-21.36 50.1-21.36 48.46-21.36 47.26-20.56 46.07-19.75 46.07-18.52 46.07-17.29 47.17-16.46 48.26-15.63 49.4-15.03 50.53-14.43 50.9-14.21L50.9-14.21 53.22-12.89Q56.35-11.18 57.37-9.28L57.37-9.28Q58.08-7.96 58.08-6.04 58.08-4.13 56.98-2.54L56.98-2.54Q54.86 0.51 49.88 0.51L49.88 0.51Q47.34 0.51 43.77-0.37L43.77-0.37Q43.67-0.42 43.43-0.46 43.19-0.51 42.98-0.61 42.77-0.71 42.75-1.12 42.72-1.54 42.43-2.84 42.14-4.15 42.14-4.52 42.14-4.88 42.2-4.97 42.26-5.05 42.33-5.11 42.4-5.18 42.55-5.24 42.7-5.3 42.77-5.32 42.84-5.35 42.99-5.4L42.99-5.4Q43.55-5.57 44.03-4.85 44.5-4.13 46.79-3.23 49.07-2.34 50.73-2.34 52.39-2.34 53.43-3.19 54.47-4.03 54.47-5.44L54.47-5.44Q54.47-7.42 52.1-8.67L52.1-8.67 47.7-11.01Q45.92-12.01 45.29-12.55L45.29-12.55Q43.77-13.87 43.16-15.06 42.55-16.26 42.55-17.77L42.55-17.77Q42.55-20.75 44.76-22.24 46.97-23.73 50.83-23.73L50.83-23.73Q52.54-23.73 54.6-23.49 56.66-23.24 57.15-22.73L57.15-22.73Q57.22-22.66 57.24-20.87 57.25-19.09 57.2-18.29Z" fill="black" stroke-width="7" stroke="black" stroke-linejoin="round"></path></g></svg></g></svg></g></svg></g></svg></g></svg></g></svg></g></svg></g></mask><g transform="matrix(1,0,0,1,80.33555331702402,37.08)"><svg viewBox="0 0 234.84889336595194 173.04" height="173.04" width="234.84889336595194"><g><svg viewBox="0 0 234.84889336595194 173.04" height="173.04" width="234.84889336595194"><g><svg viewBox="0 0 234.84889336595194 173.04" height="173.04" width="234.84889336595194"><g><svg viewBox="0 0 234.84889336595194 173.04" height="173.04" width="234.84889336595194"><g id="textblocktransform"><svg viewBox="0 0 234.84889336595194 173.04" height="173.04" width="234.84889336595194" id="textblock"><g><svg viewBox="0 0 234.84889336595194 173.04" height="173.04" width="234.84889336595194"><g transform="matrix(1,0,0,1,0,0)"><svg width="234.84889336595194" viewBox="-3.39 -43.99 65.47 48.5" height="173.04" data-palette-color="#f4f3f0"><g class="wordmark-text-0" data-fill-palette-color="primary" id="text-0"><path d="M2.81-3.74L2.81-3.74Q2.81-3.74 18.87-39.7L18.87-39.7Q18.99-39.99 20.07-39.99 21.14-39.99 21.29-39.7L21.29-39.7 37.84-3.74Q38.79-1.51 39.72-1.07L39.72-1.07Q40.04-0.93 40.04-0.46 40.04 0 39.72 0L39.72 0 30.88 0Q30.57 0 30.57-0.43 30.57-0.85 30.68-0.94 30.79-1.03 30.98-1.11 31.18-1.2 31.3-1.32L31.3-1.32Q32.23-2.25 32.23-3.04 32.23-3.83 32.06-4.35L32.06-4.35 28.52-12.72 10.91-12.72 7.45-4.35Q7.28-3.83 7.28-3.56L7.28-3.56 7.28-3.3Q7.28-3.27 7.28-3.25L7.28-3.25Q7.28-2.25 8.2-1.32L8.2-1.32Q8.3-1.22 8.62-1.07 8.94-0.93 8.94-0.46 8.94 0 8.62 0L8.62 0 0.93 0Q0.61 0 0.61-0.43 0.61-0.85 0.72-0.94 0.83-1.03 1.03-1.12L1.03-1.12Q1.83-1.46 2.81-3.74ZM19.51-31.93L12.65-16.6Q12.6-16.53 12.62-16.42 12.65-16.31 12.72-16.31L12.72-16.31 26.66-16.31Q26.73-16.31 26.76-16.42 26.78-16.53 26.73-16.6L26.73-16.6 19.68-31.93 19.51-31.93ZM57.2-18.29L57.2-18.29Q57.2-18.02 56.71-18.03 56.22-18.04 56.13-18.04L56.13-18.04Q55.83-18.04 55.69-18.46L55.69-18.46Q55.15-19.73 53.44-20.54 51.73-21.36 50.1-21.36 48.46-21.36 47.26-20.56 46.07-19.75 46.07-18.52 46.07-17.29 47.17-16.46 48.26-15.63 49.4-15.03 50.53-14.43 50.9-14.21L50.9-14.21 53.22-12.89Q56.35-11.18 57.37-9.28L57.37-9.28Q58.08-7.96 58.08-6.04 58.08-4.13 56.98-2.54L56.98-2.54Q54.86 0.51 49.88 0.51L49.88 0.51Q47.34 0.51 43.77-0.37L43.77-0.37Q43.67-0.42 43.43-0.46 43.19-0.51 42.98-0.61 42.77-0.71 42.75-1.12 42.72-1.54 42.43-2.84 42.14-4.15 42.14-4.52 42.14-4.88 42.2-4.97 42.26-5.05 42.33-5.11 42.4-5.18 42.55-5.24 42.7-5.3 42.77-5.32 42.84-5.35 42.99-5.4L42.99-5.4Q43.55-5.57 44.03-4.85 44.5-4.13 46.79-3.23 49.07-2.34 50.73-2.34 52.39-2.34 53.43-3.19 54.47-4.03 54.47-5.44L54.47-5.44Q54.47-7.42 52.1-8.67L52.1-8.67 47.7-11.01Q45.92-12.01 45.29-12.55L45.29-12.55Q43.77-13.87 43.16-15.06 42.55-16.26 42.55-17.77L42.55-17.77Q42.55-20.75 44.76-22.24 46.97-23.73 50.83-23.73L50.83-23.73Q52.54-23.73 54.6-23.49 56.66-23.24 57.15-22.73L57.15-22.73Q57.22-22.66 57.24-20.87 57.25-19.09 57.2-18.29Z" fill="#000000" data-fill-palette-color="primary"></path></g></svg></g></svg></g></svg></g></svg></g></svg></g></svg></g></svg></g><g mask="url(#086ed50d-59e7-41af-a235-82cce6697a1e)"><g transform="matrix(3.4794454456443087, 0, 0, 3.4794454456443087, 41.18514824853085, 1)"><svg xmlns="http://www.w3.org/2000/svg" xmlns:xlink="http://www.w3.org/1999/xlink" version="1.1" x="0" y="0" viewBox="5.000111111111112 14.764000000000003 89.99988888888889 70.47099999999998" enable-background="new 0 0 100 100" xml:space="preserve" height="70.47099999999998" width="89.99988888888889" class="icon-none" data-fill-palette-color="accent" id="none"><path d="M64.226 70.58c4.544-4.09 7.713-9.571 8.765-15.736L95 53.631l-21.635-2.782c0.003-0.167 0.012-0.339 0.012-0.512 0-12.275-8.33-22.708-19.852-26.381l-2.108-9.192-5.548 7.818c-0.473-0.022-0.949-0.039-1.43-0.039-13.508 0-24.881 8.942-28.053 20.983L5.057 42.068c-0.128 0.423 0 16.526 0 16.526l11.565-0.634c0.387 1.308 0.868 2.565 1.444 3.784L7.455 76.695l12.631 0.963 4.268-7.351c5.208 4.835 12.289 7.812 20.085 7.812 4.457 0 8.677-0.975 12.453-2.71l10.692 9.826L64.226 70.58zM47.249 30.889l2.07 16.871-11.042-1.419L47.249 30.889zM29.779 45.251l-8.274-1.068c2.624-9.015 10.856-15.803 20.842-16.644L29.779 45.251zM32.019 57.108l18.321-1.007 1.833 14.974 0.716 0.656c-2.627 0.957-5.473 1.486-8.45 1.486-6.908 0-13.138-2.844-17.492-7.373L32.019 57.108zM60.771 55.522l6.955-0.384c-0.801 3.601-2.49 6.889-4.832 9.648L60.771 55.522zM59.284 49.04l-4.426-19.286c7.888 3.706 13.341 11.468 13.396 20.438L59.284 49.04z" fill="#000000" data-fill-palette-color="accent"></path></svg></g></g></svg></g><defs></defs></svg><rect width="395.52" height="247.2" fill="none" stroke="none" visibility="hidden"></rect></g></svg></g></svg>