<svg xmlns="http://www.w3.org/2000/svg" version="1.1" xmlns:xlink="http://www.w3.org/1999/xlink" xmlns:svgjs="http://svgjs.dev/svgjs" width="128" height="128" viewBox="0 0 128 128"><g transform="matrix(0.8046875,0,0,0.8046875,12.333870967741937,12.333870967741937)"><svg viewBox="0 0 155 155" data-background-color="#21232b" preserveAspectRatio="xMidYMid meet" height="128" width="128" xmlns="http://www.w3.org/2000/svg" xmlns:xlink="http://www.w3.org/1999/xlink"><g id="tight-bounds" transform="matrix(1,0,0,1,0.25,0.25)"><svg viewBox="0 0 154.5 154.5" height="154.5" width="154.5"><g><svg></svg></g><g><svg viewBox="0 0 154.5 154.5" height="154.5" width="154.5"><mask id="28785c77-b562-46c7-9d76-aac81b5bebdd"><rect width="250" height="250" fill="white"></rect><g transform="matrix(1,0,0,1,44.23099226796625,43.83165)"><svg viewBox="0 0 66.0380154640675 66.8367" height="66.8367" width="66.0380154640675"><g><svg viewBox="0 0 66.0380154640675 66.8367" height="66.8367" width="66.0380154640675"><g><svg viewBox="0 0 66.0380154640675 66.8367" height="66.8367" width="66.0380154640675"><g id="SvgjsG2446"><svg viewBox="0 0 66.0380154640675 66.8367" height="66.8367" width="66.0380154640675" id="SvgjsSvg2445"><g><svg viewBox="0 0 66.0380154640675 66.8367" height="66.8367" width="66.0380154640675"><g transform="matrix(1,0,0,1,0,0)"><svg width="66.0380154640675" viewBox="-3.39 -43.99 47.43 47.99" height="66.8367" data-palette-color="#f4f3f0"><g class="wordmark-text-0" data-fill-palette-color="primary" id="SvgjsG2444"><path d="M2.81-3.74L2.81-3.74Q2.81-3.74 18.87-39.7L18.87-39.7Q18.99-39.99 20.07-39.99 21.14-39.99 21.29-39.7L21.29-39.7 37.84-3.74Q38.79-1.51 39.72-1.07L39.72-1.07Q40.04-0.93 40.04-0.46 40.04 0 39.72 0L39.72 0 30.88 0Q30.57 0 30.57-0.43 30.57-0.85 30.68-0.94 30.79-1.03 30.98-1.11 31.18-1.2 31.3-1.32L31.3-1.32Q32.23-2.25 32.23-3.04 32.23-3.83 32.06-4.35L32.06-4.35 28.52-12.72 10.91-12.72 7.45-4.35Q7.28-3.83 7.28-3.56L7.28-3.56 7.28-3.3Q7.28-3.27 7.28-3.25L7.28-3.25Q7.28-2.25 8.2-1.32L8.2-1.32Q8.3-1.22 8.62-1.07 8.94-0.93 8.94-0.46 8.94 0 8.62 0L8.62 0 0.93 0Q0.61 0 0.61-0.43 0.61-0.85 0.72-0.94 0.83-1.03 1.03-1.12L1.03-1.12Q1.83-1.46 2.81-3.74ZM19.51-31.93L12.65-16.6Q12.6-16.53 12.62-16.42 12.65-16.31 12.72-16.31L12.72-16.31 26.66-16.31Q26.73-16.31 26.76-16.42 26.78-16.53 26.73-16.6L26.73-16.6 19.68-31.93 19.51-31.93Z" fill="black" stroke-width="7" stroke="black" stroke-linejoin="round"></path></g></svg></g></svg></g></svg></g></svg></g></svg></g></svg></g></mask><g transform="matrix(1,0,0,1,44.23099226796625,43.83165)"><svg viewBox="0 0 66.0380154640675 66.8367" height="66.8367" width="66.0380154640675"><g><svg viewBox="0 0 66.0380154640675 66.8367" height="66.8367" width="66.0380154640675"><g><svg viewBox="0 0 66.0380154640675 66.8367" height="66.8367" width="66.0380154640675"><g id="textblocktransform"><svg viewBox="0 0 66.0380154640675 66.8367" height="66.8367" width="66.0380154640675" id="textblock"><g><svg viewBox="0 0 66.0380154640675 66.8367" height="66.8367" width="66.0380154640675"><g transform="matrix(1,0,0,1,0,0)"><svg width="66.0380154640675" viewBox="-3.39 -43.99 47.43 47.99" height="66.8367" data-palette-color="#f4f3f0"><g class="wordmark-text-0" data-fill-palette-color="primary" id="text-0"><path d="M2.81-3.74L2.81-3.74Q2.81-3.74 18.87-39.7L18.87-39.7Q18.99-39.99 20.07-39.99 21.14-39.99 21.29-39.7L21.29-39.7 37.84-3.74Q38.79-1.51 39.72-1.07L39.72-1.07Q40.04-0.93 40.04-0.46 40.04 0 39.72 0L39.72 0 30.88 0Q30.57 0 30.57-0.43 30.57-0.85 30.68-0.94 30.79-1.03 30.98-1.11 31.18-1.2 31.3-1.32L31.3-1.32Q32.23-2.25 32.23-3.04 32.23-3.83 32.06-4.35L32.06-4.35 28.52-12.72 10.91-12.72 7.45-4.35Q7.28-3.83 7.28-3.56L7.28-3.56 7.28-3.3Q7.28-3.27 7.28-3.25L7.28-3.25Q7.28-2.25 8.2-1.32L8.2-1.32Q8.3-1.22 8.62-1.07 8.94-0.93 8.94-0.46 8.94 0 8.62 0L8.62 0 0.93 0Q0.61 0 0.61-0.43 0.61-0.85 0.72-0.94 0.83-1.03 1.03-1.12L1.03-1.12Q1.83-1.46 2.81-3.74ZM19.51-31.93L12.65-16.6Q12.6-16.53 12.62-16.42 12.65-16.31 12.72-16.31L12.72-16.31 26.66-16.31Q26.73-16.31 26.76-16.42 26.78-16.53 26.73-16.6L26.73-16.6 19.68-31.93 19.51-31.93Z" fill="#f4f3f0" data-fill-palette-color="primary"></path></g></svg></g></svg></g></svg></g></svg></g></svg></g></svg></g><g mask="url(#28785c77-b562-46c7-9d76-aac81b5bebdd)"><g transform="matrix(1.6944465363537486, 0, 0, 1.6944465363537486, 1, 17.54532906830751)"><svg xmlns="http://www.w3.org/2000/svg" xmlns:xlink="http://www.w3.org/1999/xlink" version="1.1" x="0" y="0" viewBox="5.000111111111112 14.764000000000003 89.99988888888889 70.47099999999998" enable-background="new 0 0 100 100" xml:space="preserve" height="70.47099999999998" width="89.99988888888889" class="icon-none" data-fill-palette-color="accent" id="none"><path d="M64.226 70.58c4.544-4.09 7.713-9.571 8.765-15.736L95 53.631l-21.635-2.782c0.003-0.167 0.012-0.339 0.012-0.512 0-12.275-8.33-22.708-19.852-26.381l-2.108-9.192-5.548 7.818c-0.473-0.022-0.949-0.039-1.43-0.039-13.508 0-24.881 8.942-28.053 20.983L5.057 42.068c-0.128 0.423 0 16.526 0 16.526l11.565-0.634c0.387 1.308 0.868 2.565 1.444 3.784L7.455 76.695l12.631 0.963 4.268-7.351c5.208 4.835 12.289 7.812 20.085 7.812 4.457 0 8.677-0.975 12.453-2.71l10.692 9.826L64.226 70.58zM47.249 30.889l2.07 16.871-11.042-1.419L47.249 30.889zM29.779 45.251l-8.274-1.068c2.624-9.015 10.856-15.803 20.842-16.644L29.779 45.251zM32.019 57.108l18.321-1.007 1.833 14.974 0.716 0.656c-2.627 0.957-5.473 1.486-8.45 1.486-6.908 0-13.138-2.844-17.492-7.373L32.019 57.108zM60.771 55.522l6.955-0.384c-0.801 3.601-2.49 6.889-4.832 9.648L60.771 55.522zM59.284 49.04l-4.426-19.286c7.888 3.706 13.341 11.468 13.396 20.438L59.284 49.04z" fill="#2f84ff" data-fill-palette-color="accent"></path></svg></g></g></svg></g><defs></defs></svg><rect width="154.5" height="154.5" fill="none" stroke="none" visibility="hidden"></rect></g></svg></g></svg>